# This file uses centimeters as units for non-parametric coordinates.

mtllib molaire.mtl
g default
v -0.394777 11.670632 5.126404
v -0.131592 11.670632 5.126404
v 0.131592 11.670632 5.126404
v 0.394777 11.670632 5.126404
v -0.500000 12.003965 5.231627
v -0.166667 12.003965 5.231627
v 0.166667 12.003965 5.231627
v 0.500000 12.003965 5.231627
v -0.350901 12.337298 5.058169
v -0.166667 12.337298 5.231627
v 0.166667 12.337298 5.231627
v 0.361194 12.337298 5.080316
v -0.500000 12.670632 5.231627
v -0.166667 12.670632 5.231627
v 0.166667 12.670632 5.231627
v 0.500000 12.670632 5.231627
v -0.500000 12.670632 4.898294
v -0.162673 12.410154 4.795270
v 0.045139 12.416521 4.858387
v 0.500000 12.670632 4.898294
v -0.500000 12.670632 4.564960
v -0.142258 12.450743 4.652291
v 0.171994 12.500319 4.659319
v 0.500000 12.670632 4.564960
v -0.500000 12.670632 4.231627
v -0.166667 12.670632 4.231627
v 0.166667 12.670632 4.231627
v 0.500000 12.670632 4.231627
v -0.277882 12.337298 4.403700
v -0.166667 12.337298 4.231627
v 0.166667 12.337298 4.231627
v 0.366620 12.337298 4.277140
v -0.500000 12.003965 4.231627
v -0.166667 12.003965 4.231627
v 0.166667 12.003965 4.231627
v 0.500000 12.003965 4.231627
v -0.394777 11.670632 4.336850
v -0.131592 11.670632 4.336850
v 0.131592 11.670632 4.336850
v 0.394777 11.670632 4.336850
v -0.394777 11.670632 4.600035
v -0.131592 11.909930 4.600035
v 0.069803 11.886537 4.775268
v 0.394777 11.670632 4.600035
v -0.394777 11.670632 4.863220
v -0.131592 11.670632 4.863220
v 0.349846 10.115678 4.972729
v 0.394777 11.670632 4.863220
v 0.500000 12.003965 4.564960
v 0.500000 12.003965 4.898294
v 0.307697 12.117960 4.667883
v 0.307697 12.117960 4.795371
v -0.500000 12.003965 4.564960
v -0.500000 12.003965 4.898294
v -0.307697 12.117960 4.667883
v -0.307697 12.117960 4.795371
vt 0.375000 0.000000
vt 0.458333 0.000000
vt 0.541667 0.000000
vt 0.625000 0.000000
vt 0.375000 0.083333
vt 0.458333 0.083333
vt 0.541667 0.083333
vt 0.625000 0.083333
vt 0.375000 0.166667
vt 0.458333 0.166667
vt 0.541667 0.166667
vt 0.625000 0.166667
vt 0.375000 0.250000
vt 0.458333 0.250000
vt 0.541667 0.250000
vt 0.625000 0.250000
vt 0.375000 0.333333
vt 0.458333 0.333333
vt 0.541667 0.333333
vt 0.625000 0.333333
vt 0.375000 0.416667
vt 0.458333 0.416667
vt 0.541667 0.416667
vt 0.625000 0.416667
vt 0.375000 0.500000
vt 0.458333 0.500000
vt 0.541667 0.500000
vt 0.625000 0.500000
vt 0.375000 0.583333
vt 0.458333 0.583333
vt 0.541667 0.583333
vt 0.625000 0.583333
vt 0.375000 0.666667
vt 0.458333 0.666667
vt 0.541667 0.666667
vt 0.625000 0.666667
vt 0.375000 0.750000
vt 0.458333 0.750000
vt 0.541667 0.750000
vt 0.625000 0.750000
vt 0.375000 0.833333
vt 0.458333 0.833333
vt 0.541667 0.833333
vt 0.625000 0.833333
vt 0.375000 0.916667
vt 0.458333 0.916667
vt 0.541667 0.916667
vt 0.625000 0.916667
vt 0.375000 1.000000
vt 0.458333 1.000000
vt 0.541667 1.000000
vt 0.625000 1.000000
vt 0.875000 0.000000
vt 0.791667 0.000000
vt 0.708333 0.000000
vt 0.875000 0.083333
vt 0.791667 0.083333
vt 0.708333 0.083333
vt 0.875000 0.166667
vt 0.791667 0.166667
vt 0.708333 0.166667
vt 0.875000 0.250000
vt 0.791667 0.250000
vt 0.708333 0.250000
vt 0.125000 0.000000
vt 0.208333 0.000000
vt 0.291667 0.000000
vt 0.125000 0.083333
vt 0.208333 0.083333
vt 0.291667 0.083333
vt 0.125000 0.166667
vt 0.208333 0.166667
vt 0.291667 0.166667
vt 0.125000 0.250000
vt 0.208333 0.250000
vt 0.291667 0.250000
vn 0.000000 -0.301026 0.953616
vn 0.000000 -0.301026 0.953616
vn -0.072509 -0.084919 0.993746
vn -0.148251 -0.024198 0.988654
vn 0.000000 -0.301026 0.953616
vn 0.062969 -0.093757 0.993602
vn 0.000000 -0.301026 0.953616
vn 0.129351 -0.040952 0.990753
vn -0.144927 -0.000000 0.989443
vn -0.317770 -0.000000 0.948168
vn 0.125666 0.000000 0.992073
vn 0.275551 -0.000000 0.961286
vn -0.143428 -0.143428 0.979212
vn -0.302847 -0.302847 0.903641
vn 0.124685 -0.124685 0.984331
vn 0.265651 -0.265651 0.926747
vn 0.303976 0.902883 -0.303976
vn 0.188869 0.886632 -0.422152
vn 0.268660 0.946204 -0.180332
vn 0.405229 0.897875 -0.172078
vn -0.158394 0.907834 -0.388264
vn -0.164554 0.948077 -0.272163
vn -0.281496 0.917344 -0.281496
vn -0.367348 0.916653 -0.157488
vn 0.181278 0.939642 0.290191
vn 0.377254 0.903060 0.205334
vn -0.273335 0.936586 0.219304
vn -0.320455 0.936455 0.142692
vn 0.094470 0.932982 0.347304
vn 0.262327 0.928638 0.262328
vn -0.140038 0.934534 0.327161
vn -0.214729 0.952777 0.214729
vn -0.339531 -0.339531 -0.877176
vn -0.151266 -0.151266 -0.976851
vn -0.153027 -0.000000 -0.988222
vn -0.360975 -0.000000 -0.932575
vn 0.037874 -0.037874 -0.998565
vn 0.037901 0.000000 -0.999281
vn 0.084729 -0.084729 -0.992795
vn 0.085035 0.000000 -0.996378
vn -0.074179 -0.088171 -0.993340
vn -0.144055 -0.050434 -0.988284
vn 0.018836 -0.137029 -0.990388
vn 0.038454 -0.131984 -0.990506
vn 0.000000 -0.301026 -0.953616
vn 0.000000 -0.301026 -0.953616
vn 0.000000 -0.301026 -0.953616
vn 0.000000 -0.301026 -0.953616
vn 0.382404 -0.841150 0.382404
vn 0.042518 -0.876399 0.479705
vn -0.043732 -0.947979 -0.315314
vn 0.413860 -0.910341 0.000000
vn -0.252876 -0.890487 0.378267
vn -0.135334 -0.494874 -0.858362
vn -0.262598 -0.928485 0.262598
vn -0.066909 -0.749329 -0.658809
vn -0.529472 -0.729757 -0.432567
vn 0.216404 -0.952018 -0.216404
vn 0.022944 -0.965749 0.258463
vn 0.887960 -0.356562 -0.290499
vn -0.625251 -0.467036 0.625251
vn 0.000000 -1.000000 0.000000
vn -0.084762 -0.269092 0.959377
vn 0.704240 -0.089949 0.704240
vn 0.953616 -0.301026 0.000000
vn 0.953616 -0.301026 0.000000
vn 0.977824 0.160113 0.134994
vn 0.987880 0.124369 0.092873
vn 0.953616 -0.301026 0.000000
vn 0.991231 0.092677 -0.094194
vn 0.953616 -0.301026 0.000000
vn 0.989677 0.070362 -0.124850
vn 0.992040 -0.117565 0.045116
vn 0.996047 0.070818 0.053625
vn 0.994079 0.090203 -0.060583
vn 0.990678 -0.130386 -0.039464
vn 0.936572 -0.349225 -0.029573
vn 0.939873 -0.341062 -0.017776
vn 0.937513 -0.346957 0.026285
vn 0.931089 -0.361655 0.047735
vn -0.953616 -0.301026 0.000000
vn -0.953616 -0.301026 0.000000
vn -0.984938 0.155535 0.075536
vn -0.983329 0.151977 0.099831
vn -0.953616 -0.301026 0.000000
vn -0.991315 0.093602 -0.092371
vn -0.953616 -0.301026 0.000000
vn -0.990802 0.062666 -0.119938
vn -0.991965 0.125567 0.015469
vn -0.978978 -0.170767 -0.111535
vn -0.993441 0.098608 -0.057887
vn -0.990005 -0.139553 -0.020403
vn -0.904016 -0.410031 -0.120956
vn -0.857503 -0.467652 -0.214455
vn -0.933772 -0.355732 0.039050
vn -0.922915 -0.378163 0.072253
s 1
g pCube1
usemtl initialShadingGroup
f 1/1/1 2/2/2 6/6/3 5/5/4
f 2/2/2 3/3/5 7/7/6 6/6/3
f 3/3/5 4/4/7 8/8/8 7/7/6
f 5/5/4 6/6/3 10/10/9 9/9/10
f 6/6/3 7/7/6 11/11/11 10/10/9
f 7/7/6 8/8/8 12/12/12 11/11/11
f 9/9/10 10/10/9 14/14/13 13/13/14
f 10/10/9 11/11/11 15/15/15 14/14/13
f 11/11/11 12/12/12 16/16/16 15/15/15
s 2
f 13/13/17 14/14/18 18/18/19 17/17/20
f 14/14/18 15/15/21 19/19/22 18/18/19
f 15/15/21 16/16/23 20/20/24 19/19/22
f 17/17/20 18/18/19 22/22/25 21/21/26
f 18/18/19 19/19/22 23/23/27 22/22/25
f 19/19/22 20/20/24 24/24/28 23/23/27
f 21/21/26 22/22/25 26/26/29 25/25/30
f 22/22/25 23/23/27 27/27/31 26/26/29
f 23/23/27 24/24/28 28/28/32 27/27/31
s 3
f 25/25/33 26/26/34 30/30/35 29/29/36
f 26/26/34 27/27/37 31/31/38 30/30/35
f 27/27/37 28/28/39 32/32/40 31/31/38
f 29/29/36 30/30/35 34/34/41 33/33/42
f 30/30/35 31/31/38 35/35/43 34/34/41
f 31/31/38 32/32/40 36/36/44 35/35/43
f 33/33/42 34/34/41 38/38/45 37/37/46
f 34/34/41 35/35/43 39/39/47 38/38/45
f 35/35/43 36/36/44 40/40/48 39/39/47
s 4
f 37/37/49 38/38/50 42/42/51 41/41/52
f 38/38/50 39/39/53 43/43/54 42/42/51
f 39/39/53 40/40/55 44/44/56 43/43/54
f 41/41/52 42/42/51 46/46/57 45/45/58
f 42/42/51 43/43/54 47/47/59 46/46/57
f 43/43/54 44/44/56 48/48/60 47/47/59
f 45/45/58 46/46/57 2/50/61 1/49/62
f 46/46/57 47/47/59 3/51/63 2/50/61
f 47/47/59 48/48/60 4/52/64 3/51/63
s 5
f 44/54/65 40/53/66 36/56/67 49/57/68
f 48/55/69 44/54/65 49/57/68 50/58/70
f 4/4/71 48/55/69 50/58/70 8/8/72
f 49/57/68 36/56/67 32/59/73 51/60/74
f 50/58/70 49/57/68 51/60/74 52/61/75
f 8/8/72 50/58/70 52/61/75 12/12/76
f 51/60/74 32/59/73 28/62/77 24/63/78
f 52/61/75 51/60/74 24/63/78 20/64/79
f 12/12/76 52/61/75 20/64/79 16/16/80
s 6
f 37/65/81 41/66/82 53/69/83 33/68/84
f 41/66/82 45/67/85 54/70/86 53/69/83
f 45/67/85 1/1/87 5/5/88 54/70/86
f 33/68/84 53/69/83 55/72/89 29/71/90
f 53/69/83 54/70/86 56/73/91 55/72/89
f 54/70/86 5/5/88 9/9/92 56/73/91
f 29/71/90 55/72/89 21/75/93 25/74/94
f 55/72/89 56/73/91 17/76/95 21/75/93
f 56/73/91 9/9/92 13/13/96 17/76/95
